<svg width="236" height="257" viewBox="0 0 236 257" fill="none" xmlns="http://www.w3.org/2000/svg">
<path d="M236 88.988V167.969C236 185.664 226.543 201.984 211.239 210.874L142.804 250.343C127.457 259.19 108.543 259.19 93.2393 250.343L24.7607 210.874C9.4572 201.984 0 185.664 0 167.969V88.988C0 71.3364 9.4572 54.9733 24.7607 46.126L93.2393 6.65691C108.543 -2.23329 127.457 -2.23329 142.804 6.65691L211.239 46.126C226.543 54.9733 236 71.3364 236 88.988Z" fill="#49de80"/>
<path d="M216.57 131.592C196.839 131.378 180.332 134.942 166.791 140.096C179.343 126.481 191.852 108.014 200.965 83.2759C202.556 78.9382 197.784 74.944 193.787 77.2632C167.005 92.8103 149.553 111.493 138.204 128.371C142.718 108.701 142.589 82.9753 128.317 53.2983C126.554 49.5618 124.534 45.8254 122.299 41.9601C121.568 40.7146 120.45 39.9415 119.247 39.6409C118.86 39.555 118.43 39.4691 118 39.4691C117.183 39.4691 116.324 39.6838 115.593 40.0703C114.862 40.4569 114.174 41.1011 113.701 41.9171C111.466 45.7395 109.446 49.5189 107.683 53.2553C93.4543 82.9323 93.3253 108.658 97.796 128.328C86.4474 111.493 68.9945 92.7674 42.2135 77.2202C38.2157 74.9011 33.4441 78.9382 35.0346 83.2329C44.1479 107.928 56.6572 126.396 69.2095 140.053C55.6685 134.856 39.2044 131.292 19.4302 131.549C15.0455 131.592 12.8532 137.047 15.9913 140.096C39.3763 162.944 63.4922 172.178 82.4066 175.614C75.2277 178.105 67.49 182.614 59.9672 190.474C58.2047 192.321 59.2794 195.499 61.8157 195.885C86.6623 199.751 101.622 188.799 108.672 181.455C108.586 187.124 109.575 198.333 112.498 208.383C114.088 213.88 121.912 213.88 123.502 208.383C126.426 198.333 127.457 187.124 127.328 181.455C134.335 188.799 149.338 199.708 174.184 195.885C176.721 195.499 177.795 192.363 176.033 190.474C168.51 182.614 160.772 178.105 153.593 175.614C172.508 172.178 196.624 162.944 220.009 140.096C223.147 137.047 220.954 131.592 216.57 131.549V131.592Z" fill="#f0efe8"/>
</svg>
